PathFileType	4	(X/Y/Z)	\\Move.snu.ac.kr\motion\Animal\091204_091205_Bird\091205_bird\Project 2\Capture day 2\Session 1\pigeon_024.trc
DataRate	CameraRate	NumFrames	NumMarkers	Units	OrigDataRate	OrigDataStartFrame	OrigNumFrames
240.0	240.0	14	14	mm	240.0	50	1929
Frame#	Time	14MarkersBird:Head			14MarkersBird:C_back			14MarkersBird:Spine			14MarkersBird:L-shoulder			14MarkersBird:L-elbow			14MarkersBird:L-wrist			14MarkersBird:L-hand			14MarkersBird:R-shoulder			14MarkersBird:R-elbow			14MarkersBird:R-Wrist			14MarkersBird:R-hand			14MarkersBird:C_Tail			14MarkersBird:L-Tale			14MarkersBird:R-Tale			
		X1	Y1	Z1	X2	Y2	Z2	X3	Y3	Z3	X4	Y4	Z4	X5	Y5	Z5	X6	Y6	Z6	X7	Y7	Z7	X8	Y8	Z8	X9	Y9	Z9	X10	Y10	Z10	X11	Y11	Z11	X12	Y12	Z12	X13	Y13	Z13	X14	Y14	Z14	

936	3.896	433.25510	1438.29614	-2237.18457	470.30200	1412.89368	-2278.80566	503.20389	1385.31335	-2315.97412	473.30850	1417.49500	-2242.05396	489.89117	1434.63550	-2255.58887	496.69760	1471.84863	-2258.36572	502.59323	1489.68835	-2280.26514	439.39404	1416.52417	-2269.60181	472.94684	1431.91333	-2284.48877	441.55594	1470.84656	-2285.43164	460.87387	1504.92175	-2305.71069	560.47882	1279.50537	-2354.01685	582.09619	1326.68542	-2269.10083	450.30615	1307.16699	-2389.86694	
937	3.900	433.10818	1440.92297	-2235.68896	470.00076	1414.66602	-2276.43066	502.86499	1387.34351	-2314.26001	473.61533	1420.11621	-2240.37061	494.21561	1436.39807	-2254.51147	502.33865	1472.27490	-2252.79468	507.90298	1493.03625	-2271.99292	438.18439	1418.82446	-2268.04614	469.16852	1435.82434	-2281.12573	434.05743	1471.46851	-2286.71191	446.62762	1510.25159	-2302.75000	562.34253	1283.00061	-2351.33691	582.99786	1331.30786	-2267.27539	451.37830	1309.05127	-2388.28027	
938	3.904	433.01843	1443.66577	-2234.06616	469.82373	1416.55798	-2273.97070	502.25232	1389.89722	-2312.52368	473.90073	1422.82764	-2238.64282	498.36316	1437.30493	-2253.05444	509.24683	1470.55713	-2246.11694	517.83136	1493.78748	-2260.80249	436.86920	1420.96106	-2266.53149	464.39334	1439.05249	-2278.31689	425.38654	1470.04883	-2288.49683	424.75278	1508.82373	-2300.53052	563.48499	1286.77771	-2349.21753	583.86230	1335.73560	-2266.25171	453.40323	1310.81470	-2386.65259	
939	3.908	432.97577	1446.54187	-2232.28052	469.78735	1418.66833	-2271.43628	501.54532	1393.02771	-2310.70776	474.15271	1425.56177	-2236.78979	501.25320	1437.85962	-2250.36182	516.33795	1466.78894	-2238.24976	529.75970	1490.95227	-2247.27344	435.48370	1423.05518	-2264.88159	458.33951	1441.58936	-2276.41699	416.18848	1466.71362	-2289.17920	402.06177	1502.30957	-2296.30298	564.09692	1290.93884	-2347.75317	584.50110	1339.82019	-2265.71509	456.05804	1313.09839	-2385.27197	
940	3.912	432.96078	1449.51831	-2230.30225	469.90802	1421.09509	-2268.83691	500.80566	1396.58728	-2308.82446	474.32983	1428.13171	-2234.77393	504.20618	1437.37341	-2246.07715	522.52594	1461.16162	-2229.03320	540.64374	1484.13025	-2231.86768	434.05630	1425.12231	-2262.99634	450.13708	1443.72424	-2276.93823	406.88892	1461.67041	-2287.64185	381.56393	1491.70386	-2289.84302	564.40015	1295.55359	-2346.98071	584.71332	1343.39001	-2265.33179	458.80804	1316.56409	-2384.48389	
941	3.917	432.94855	1452.52881	-2228.09863	470.20184	1423.93420	-2266.18262	500.06833	1400.45154	-2306.92236	474.37463	1430.40540	-2232.52905	505.51721	1437.04602	-2241.00879	526.68787	1453.85620	-2218.53052	548.09863	1473.67090	-2215.14331	432.60123	1427.16968	-2260.87549	441.75204	1444.62976	-2277.49658	398.04620	1455.07202	-2283.48755	364.89810	1477.48816	-2281.67944	564.49945	1300.58887	-2346.81201	584.35431	1346.35120	-2264.86841	461.05872	1321.60962	-2384.49756	
942	3.921	432.92166	1455.51282	-2225.63696	470.67538	1427.23706	-2263.48169	499.46732	1404.69336	-2305.03931	474.29834	1432.42554	-2229.93945	506.53055	1436.66382	-2235.37427	527.76605	1445.15601	-2207.26440	550.63776	1460.24768	-2197.99438	431.14703	1429.21509	-2258.52710	434.58008	1443.67126	-2275.39380	390.56281	1447.11914	-2276.81152	353.14709	1460.48572	-2272.98633	564.33087	1305.88928	-2347.06177	583.38483	1348.72290	-2264.24731	462.33209	1328.22705	-2385.23438	
943	3.925	432.89236	1458.42065	-2222.89697	471.25952	1430.93896	-2260.79004	499.18008	1409.48401	-2303.18262	474.21701	1434.36804	-2226.91479	507.20221	1435.21423	-2229.55273	525.12408	1435.69360	-2196.28809	547.42053	1444.72449	-2181.78564	429.72308	1431.27698	-2255.95874	428.25311	1441.82373	-2272.15259	385.53653	1438.24902	-2268.01733	345.78796	1442.66663	-2266.63550	563.70483	1311.23083	-2347.57056	581.89270	1350.61389	-2263.54102	462.37741	1336.11438	-2386.35132	
944	3.929	432.88058	1461.18933	-2219.86353	471.76288	1434.87988	-2258.23511	499.13382	1414.71082	-2301.35400	474.22296	1436.42847	-2223.49048	506.00073	1434.31616	-2224.43066	518.83197	1426.60229	-2186.87695	538.24371	1428.57288	-2168.18555	428.35858	1433.37390	-2253.17773	423.09473	1439.62268	-2268.11865	383.86670	1429.29663	-2257.76831	341.52588	1426.05298	-2262.08643	562.40326	1316.42407	-2348.31396	580.08344	1352.17969	-2262.94556	461.17175	1344.88403	-2387.41553	
945	3.933	432.87717	1463.73157	-2216.52515	472.09073	1438.79492	-2255.76074	498.99902	1419.91089	-2299.53491	474.27698	1438.73828	-2219.87085	504.51974	1432.22034	-2219.24219	509.74155	1419.37744	-2179.93579	523.90125	1414.10352	-2158.66382	427.08307	1435.52490	-2250.19141	419.51913	1437.38574	-2263.48730	385.77444	1421.55017	-2246.85205	344.89429	1410.15173	-2247.13281	560.27368	1321.38525	-2349.38623	578.25189	1353.58972	-2262.73389	458.84711	1354.11633	-2388.04810	
946	3.938	432.84738	1465.96655	-2212.88501	472.22064	1442.68762	-2253.37061	498.54492	1424.66187	-2297.63574	474.30219	1441.36047	-2216.31934	502.66949	1430.37012	-2215.51245	499.32803	1415.33289	-2175.69482	506.48740	1403.90808	-2153.84375	425.92575	1437.74792	-2247.00806	417.58350	1435.56152	-2258.89185	390.53174	1416.50769	-2236.09595	356.29651	1399.74475	-2228.93555	557.30389	1326.15552	-2350.86768	576.70856	1354.99707	-2263.15967	455.65005	1363.26331	-2387.92578	
947	3.942	432.74847	1467.84802	-2208.97192	472.06116	1446.49524	-2250.98364	497.78571	1428.82410	-2295.51440	474.22571	1444.27393	-2213.02734	501.08698	1429.36768	-2212.78955	489.47760	1415.10803	-2173.75562	489.03088	1399.73840	-2153.17212	424.91592	1440.06213	-2243.63428	417.05029	1434.63721	-2254.95435	396.64209	1415.28784	-2226.49023	368.83557	1394.02771	-2212.80835	553.65430	1330.87500	-2352.70264	575.63019	1356.49207	-2264.32886	451.92813	1371.62769	-2386.78076	
948	3.946	432.54547	1469.36499	-2204.83496	471.55212	1450.10449	-2248.43188	496.83307	1432.45313	-2293.04932	473.99054	1447.34900	-2210.02563	500.10928	1429.57617	-2211.16211	482.12570	1418.54724	-2173.30469	474.65018	1401.66016	-2155.07568	424.08307	1442.48572	-2240.07837	417.43542	1435.04187	-2252.14526	402.33264	1418.14331	-2219.13501	380.82123	1393.78552	-2200.00439	549.61676	1335.70483	-2354.66724	574.96027	1358.10266	-2266.12793	448.06885	1378.55408	-2384.47998	
949	3.950	432.22070	1470.53711	-2200.52954	470.69675	1453.41711	-2245.55029	495.77005	1435.68335	-2290.19165	473.54617	1450.39246	-2207.19653	499.98526	1431.34607	-2210.65210	478.64545	1424.86536	-2173.44604	465.63351	1408.13403	-2157.61206	423.45639	1445.03748	-2236.34766	418.24173	1437.10742	-2250.71606	406.16629	1424.43701	-2214.77100	390.53873	1398.90979	-2191.37427	545.52734	1340.70105	-2356.42114	574.47314	1359.84875	-2268.23120	444.41568	1383.66833	-2381.09961	
